<?xml version="1.0" standalone="no"?>
<!DOCTYPE svg PUBLIC "-//W3C//DTD SVG 20010904//EN"
 "http://www.w3.org/TR/2001/REC-SVG-20010904/DTD/svg10.dtd">
<svg version="1.0" xmlns="http://www.w3.org/2000/svg"
 width="300.000000pt" height="74.000000pt" viewBox="0 0 300.000000 74.000000"
 preserveAspectRatio="xMidYMid meet">
<metadata>
Created by potrace 1.10, written by Peter Selinger 2001-2011
</metadata>
<g transform="translate(0.000000,74.000000) scale(0.100000,-0.100000)"
fill="#000000" stroke="none">
<path d="M500 596 l0 -119 118 114 c90 88 112 114 97 116 -11 1 -64 4 -118 5
l-97 3 0 -119z m120 67 c0 -5 -17 -26 -38 -48 l-37 -40 -3 33 c-5 50 3 62 43
62 19 0 35 -3 35 -7z"/>
<path d="M445 668 c-15 -18 -63 -70 -106 -114 -43 -45 -79 -84 -79 -88 0 -3
47 -6 104 -6 l105 0 3 118 c2 64 2 118 2 120 -1 2 -14 -12 -29 -30z m-19 -154
c-6 -15 -51 -20 -60 -6 -3 4 10 23 27 42 l32 34 3 -28 c2 -15 1 -34 -2 -42z"/>
<path d="M700 644 c-17 -15 -29 -29 -26 -31 5 -6 76 40 76 50 0 14 -19 7 -50
-19z"/>
<path d="M110 550 l0 -90 53 0 c45 0 57 4 80 28 l27 28 -56 62 c-39 43 -63 62
-80 62 -24 0 -24 -2 -24 -90z m77 -2 c27 -25 29 -34 8 -42 -26 -10 -45 5 -45
35 0 35 6 36 37 7z"/>
<path d="M60 605 l-23 -25 26 0 c22 0 27 5 27 25 0 14 -1 25 -3 25 -2 0 -14
-11 -27 -25z"/>
<path d="M920 370 l0 -140 24 0 c22 0 24 3 20 33 -4 29 3 41 96 140 98 103
101 107 72 107 -24 0 -43 -14 -96 -70 -36 -38 -68 -70 -72 -70 -3 0 -4 32 -2
70 4 67 3 70 -19 70 -23 0 -23 -1 -23 -140z"/>
<path d="M1325 493 c10 -23 62 -165 82 -220 12 -35 19 -43 40 -43 20 0 24 4
18 18 -4 9 -24 64 -45 122 -21 58 -41 113 -45 123 -4 10 -18 17 -32 17 -20 0
-24 -4 -18 -17z"/>
<path d="M1620 370 c0 -133 1 -140 20 -140 19 0 20 7 20 140 0 133 -1 140 -20
140 -19 0 -20 -7 -20 -140z"/>
<path d="M1830 490 c0 -19 7 -20 110 -20 103 0 110 1 110 20 0 19 -7 20 -110
20 -103 0 -110 -1 -110 -20z"/>
<path d="M2140 490 c0 -19 6 -20 104 -20 94 0 104 2 102 18 -3 15 -17 17 -104
20 -97 3 -102 2 -102 -18z"/>
<path d="M2525 496 c-16 -7 -41 -26 -55 -41 -21 -22 -25 -37 -25 -85 0 -51 4
-63 29 -89 32 -34 79 -51 139 -51 30 0 37 4 37 19 0 15 -10 19 -56 23 -73 6
-109 39 -109 99 0 34 6 46 33 70 26 24 41 29 82 29 43 0 50 3 50 20 0 17 -7
20 -47 20 -27 -1 -61 -7 -78 -14z"/>
<path d="M2730 370 c0 -133 1 -140 20 -140 19 0 20 7 20 140 0 133 -1 140 -20
140 -19 0 -20 -7 -20 -140z"/>
<path d="M2910 450 l0 -60 -44 0 c-39 0 -44 -2 -39 -20 4 -16 14 -20 44 -20
l39 0 0 -60 c0 -56 2 -60 23 -60 22 0 22 1 22 140 0 139 0 140 -22 140 -21 0
-23 -4 -23 -60z"/>
<path d="M185 378 c129 -138 188 -199 189 -196 1 2 22 57 47 123 24 65 46 123
47 127 2 4 -74 8 -169 8 l-172 0 58 -62z m211 7 c6 -15 -22 -112 -36 -120 -10
-6 -120 106 -120 123 0 19 149 17 156 -3z"/>
<path d="M1285 425 c-5 -11 -23 -58 -41 -104 -19 -47 -34 -86 -34 -88 0 -2 10
-3 23 -3 18 0 27 13 50 68 28 71 31 93 17 127 -8 20 -8 20 -15 0z"/>
<path d="M1897 348 c-93 -116 -92 -118 42 -118 100 0 109 2 114 20 5 19 0 20
-74 20 -43 0 -79 3 -79 6 0 3 27 39 61 80 l60 74 -28 0 c-24 0 -40 -14 -96
-82z"/>
<path d="M2140 370 c0 -19 7 -20 90 -20 83 0 90 1 90 20 0 19 -7 20 -90 20
-83 0 -90 -1 -90 -20z"/>
<path d="M465 368 c-2 -7 -10 -33 -19 -58 -8 -25 -28 -82 -45 -128 -17 -46
-31 -86 -31 -90 0 -6 92 -62 101 -62 2 0 4 79 4 175 0 96 -1 175 -3 175 -1 0
-4 -6 -7 -12z"/>
<path d="M1052 333 c-15 -27 45 -102 81 -103 l28 0 -46 60 c-25 33 -48 60 -50
60 -2 0 -8 -8 -13 -17z"/>
<path d="M2140 250 c0 -19 7 -20 100 -20 93 0 100 1 100 20 0 19 -7 20 -100
20 -93 0 -100 -1 -100 -20z"/>
</g>
</svg>
