<?xml version="1.0" standalone="no"?>
<!DOCTYPE svg PUBLIC "-//W3C//DTD SVG 20010904//EN"
 "http://www.w3.org/TR/2001/REC-SVG-20010904/DTD/svg10.dtd">
<svg version="1.0" xmlns="http://www.w3.org/2000/svg"
 width="108.000000pt" height="102.000000pt" viewBox="0 0 108.000000 102.000000"
 preserveAspectRatio="xMidYMid meet">

<g transform="translate(0.000000,102.000000) scale(0.100000,-0.100000)"
fill="#000000" stroke="none">
<path d="M733 1003 c31 -2 83 -2 115 0 31 2 5 3 -58 3 -63 0 -89 -1 -57 -3z"/>
<path d="M958 1003 c12 -2 30 -2 40 0 9 3 -1 5 -23 4 -22 0 -30 -2 -17 -4z"/>
<path d="M645 973 c-4 -18 -9 -23 -14 -15 -5 9 -22 -3 -53 -40 -64 -74 -186
-194 -195 -190 -5 1 -8 7 -8 12 0 6 -3 9 -6 8 -12 -5 -49 34 -42 45 3 6 1 7
-5 3 -7 -4 -13 -2 -13 3 -1 6 -2 17 -3 24 0 6 -5 12 -11 12 -19 0 -35 16 -29
27 4 6 2 8 -3 5 -6 -4 -18 2 -28 13 -10 11 -31 20 -46 20 -15 0 -29 6 -31 12
-5 14 -43 -18 -43 -35 0 -6 -6 -12 -14 -15 -9 -3 -11 0 -6 9 9 16 -30 -15 -58
-45 -27 -29 -16 -40 39 -39 27 1 40 -1 30 -4 -15 -4 -16 -7 -5 -14 8 -5 16
-34 20 -71 5 -52 7 -40 10 67 l3 130 6 -145 6 -145 2 143 2 142 34 0 c29 0 43
-11 116 -91 l83 -90 -39 -42 c-21 -22 -31 -35 -21 -28 14 11 17 11 17 -3 0
-14 -14 -16 -90 -16 -50 0 -90 -4 -90 -8 0 -5 9 -17 20 -27 27 -25 16 -33 -12
-9 l-23 19 19 -23 c11 -12 24 -21 30 -20 15 4 148 -137 138 -146 -4 -4 0 -6 8
-4 8 1 14 -4 15 -12 0 -8 7 -15 15 -15 8 -1 14 -7 12 -14 -1 -7 2 -10 7 -7 8
5 45 -39 46 -54 0 -3 15 -24 33 -47 28 -36 31 -44 22 -69 -16 -40 -5 -70 30
-84 16 -7 27 -16 24 -21 -3 -5 -2 -9 3 -8 20 3 34 -2 28 -11 -4 -6 1 -7 11 -3
12 4 15 3 10 -5 -4 -7 -4 -12 1 -13 4 0 19 -2 31 -3 13 -2 28 -9 33 -17 6 -9
9 102 8 289 0 167 2 306 4 309 3 3 3 12 0 21 -4 9 -2 13 4 9 5 -3 43 29 84 71
l74 77 -70 -68 c-39 -37 -76 -67 -82 -67 -9 0 -13 46 -15 164 -3 142 -1 163
12 159 13 -4 13 -4 0 6 -22 16 -27 14 -35 -16z m13 -236 c-2 -65 1 -109 7
-111 6 -3 -63 -5 -151 -5 -148 -1 -162 1 -166 17 -5 19 20 51 88 112 21 19 10
4 -26 -33 -35 -37 -62 -67 -59 -67 2 0 38 34 79 76 41 42 69 74 63 70 -7 -4
-13 -3 -13 1 0 13 135 144 142 138 3 -3 11 2 19 11 12 15 14 10 17 -42 2 -32
2 -107 0 -167z m-538 90 c0 -28 -2 -29 -40 -25 -22 2 -40 -1 -40 -6 0 -5 -3
-6 -7 -3 -11 11 45 63 67 63 15 0 20 -7 20 -29z m535 -237 c3 -11 1 -28 -5
-37 -9 -15 -10 -14 -5 7 8 32 -10 6 -19 -30 -6 -19 -5 -21 3 -10 10 13 11 13
11 0 0 -13 1 -13 10 0 6 10 10 -69 10 -231 l0 -247 -24 2 c-13 0 -23 3 -20 5
2 2 -24 20 -59 41 -67 39 -71 49 -42 112 11 25 13 27 9 8 -4 -20 -3 -22 6 -8
13 22 2 52 -14 38 -14 -11 -68 38 -72 66 -4 23 -65 85 -77 77 -6 -3 -7 -1 -4
4 4 6 -3 19 -14 29 -12 11 -57 58 -101 107 l-80 87 240 0 c231 0 241 -1 247
-20z"/>
<path d="M555 868 l-60 -63 63 60 c58 55 67 65 59 65 -1 0 -29 -28 -62 -62z"/>
<path d="M59 823 c-13 -16 -12 -17 4 -4 9 7 17 15 17 17 0 8 -8 3 -21 -13z"/>
<path d="M601 470 c-6 -18 -9 -36 -6 -38 3 -3 5 1 5 9 0 12 2 12 9 0 13 -20
25 23 13 45 -8 14 -11 11 -21 -16z m16 -12 c-3 -8 -6 -5 -6 6 -1 11 2 17 5 13
3 -3 4 -12 1 -19z"/>
<path d="M562 360 c-12 -33 -19 -67 -15 -76 9 -25 23 5 17 36 -5 20 -3 22 5
10 9 -12 10 -8 5 15 -4 20 -3 26 4 17 7 -11 12 -6 21 19 6 18 9 35 6 37 -3 3
-5 -1 -5 -9 0 -11 -2 -11 -8 -2 -5 8 -16 -9 -30 -47z"/>
<path d="M450 297 c0 -2 15 -16 33 -33 l32 -29 -29 33 c-28 30 -36 37 -36 29z"/>
<path d="M530 275 c0 -5 5 -17 10 -25 5 -8 10 -10 10 -5 0 6 -5 17 -10 25 -5
8 -10 11 -10 5z"/>
<path d="M914 983 l110 -4 -95 -96 c-51 -53 -87 -91 -78 -85 9 7 19 8 23 4 4
-4 7 -2 6 3 -4 20 1 30 9 17 6 -10 15 -9 44 8 44 26 49 37 8 15 -49 -25 -43
-2 12 53 39 39 56 49 67 42 13 -9 13 -10 -1 -10 -8 0 -26 -12 -40 -27 l-24
-28 25 21 c14 12 37 24 52 28 19 4 26 11 21 21 -3 10 -13 14 -27 10 -11 -2
-15 -2 -8 1 6 3 12 12 12 20 0 11 -21 14 -112 12 l-113 -2 109 -3z"/>
<path d="M1037 906 c-4 -10 -1 -13 9 -9 7 3 14 9 14 14 0 14 -17 10 -23 -5z"/>
<path d="M994 874 c-18 -15 -18 -15 2 -5 12 6 25 7 29 3 5 -4 5 -1 1 6 -9 15
-8 15 -32 -4z"/>
</g>
</svg>
