<?xml version="1.0" standalone="no"?>
<!DOCTYPE svg PUBLIC "-//W3C//DTD SVG 20010904//EN"
 "http://www.w3.org/TR/2001/REC-SVG-20010904/DTD/svg10.dtd">
<svg version="1.0" xmlns="http://www.w3.org/2000/svg"
 width="415.000000pt" height="102.000000pt" viewBox="0 0 415.000000 102.000000"
 preserveAspectRatio="xMidYMid meet">
<metadata>
Created by potrace 1.16, written by Peter Selinger 2001-2019
</metadata>
<g transform="translate(0.000000,102.000000) scale(0.100000,-0.100000)"
fill="#000000" stroke="none">
<path d="M688 984 c-10 -10 -10 -324 0 -324 4 0 81 72 172 160 l165 159 -76 1
c-42 0 -116 3 -165 6 -49 4 -92 3 -96 -2z"/>
<path d="M503 803 c-84 -88 -153 -163 -153 -167 0 -3 68 -6 150 -6 114 0 152
3 156 13 2 7 3 82 2 166 l-3 154 -152 -160z"/>
<path d="M150 760 l0 -130 78 0 c78 0 78 0 116 39 l39 40 -83 90 c-73 80 -87
91 -116 91 l-34 0 0 -130z"/>
<path d="M1270 510 l0 -190 35 0 35 0 0 48 c1 46 2 49 132 187 l131 140 -44 3
c-44 3 -44 3 -131 -90 l-87 -93 -1 93 0 92 -35 0 -35 0 0 -190z"/>
<path d="M1830 691 c0 -7 36 -108 122 -343 8 -24 16 -28 48 -28 l37 0 -54 148
c-29 81 -60 166 -69 190 -14 38 -19 42 -50 42 -19 0 -34 -4 -34 -9z"/>
<path d="M2240 510 l0 -190 30 0 30 0 0 190 0 190 -30 0 -30 0 0 -190z"/>
<path d="M2532 673 l3 -28 153 -3 152 -3 0 31 0 30 -156 0 -155 0 3 -27z"/>
<path d="M2960 670 l0 -31 143 3 142 3 3 28 3 27 -145 0 -146 0 0 -30z"/>
<path d="M3491 689 c-74 -29 -120 -97 -121 -176 0 -119 87 -192 228 -193 l73
0 -3 28 c-3 26 -6 27 -73 32 -81 6 -109 19 -135 63 -34 55 -22 125 30 172 15
14 41 21 98 25 75 5 77 6 80 33 l3 27 -78 -1 c-43 0 -89 -5 -102 -10z"/>
<path d="M3770 510 l0 -190 35 0 35 0 0 190 0 190 -35 0 -35 0 0 -190z"/>
<path d="M4020 620 l0 -80 -55 0 c-54 0 -55 0 -55 -30 0 -30 1 -30 55 -30 l55
0 0 -80 0 -80 35 0 35 0 0 190 0 190 -35 0 -35 0 0 -80z"/>
<path d="M216 558 c198 -215 304 -320 308 -307 3 8 32 89 66 181 33 91 60 169
60 172 0 3 -109 6 -241 6 l-242 0 49 -52z"/>
<path d="M1731 479 c-29 -74 -55 -140 -58 -146 -4 -9 6 -13 30 -13 35 0 35 1
71 86 48 114 49 122 28 168 l-17 39 -54 -134z"/>
<path d="M2621 481 c-63 -76 -91 -117 -91 -135 l0 -26 155 0 155 0 0 30 0 29
-105 3 -105 3 80 98 c44 54 80 101 80 103 0 2 -18 4 -39 4 -38 0 -43 -4 -130
-109z"/>
<path d="M2960 510 l0 -31 128 3 127 3 3 28 3 27 -130 0 -131 0 0 -30z"/>
<path d="M643 505 c-26 -66 -133 -361 -135 -373 -3 -13 139 -99 148 -90 2 3 3
115 2 249 -3 199 -5 239 -15 214z"/>
<path d="M2960 350 l0 -30 140 0 140 0 0 30 0 30 -140 0 -140 0 0 -30z"/>
</g>
</svg>
