<?xml version="1.0" standalone="no"?>
<!DOCTYPE svg PUBLIC "-//W3C//DTD SVG 20010904//EN"
 "http://www.w3.org/TR/2001/REC-SVG-20010904/DTD/svg10.dtd">
<svg version="1.0" xmlns="http://www.w3.org/2000/svg"
 width="200.000000pt" height="206.000000pt" viewBox="0 0 614.000000 406.000000"
 preserveAspectRatio="xMidYMid meet">

<g transform="translate(0.000000,406.000000) scale(0.100000,-0.100000)"
fill="#000000" stroke="none">
<path d="M1810 2271 l0 -123 68 60 c37 33 94 88 126 121 l59 60 -126 3 -127 3
0 -124z"/>
<path d="M1661 2249 l-113 -119 121 0 121 0 0 120 c0 66 -3 120 -7 119 -5 0
-59 -54 -122 -120z"/>
<path d="M2019 2314 l-34 -35 48 26 c52 29 53 31 33 38 -7 3 -29 -10 -47 -29z"/>
<path d="M1400 2225 l0 -95 63 0 c53 0 67 4 85 23 12 13 22 27 22 31 0 4 -26
36 -57 72 -45 49 -64 64 -85 64 l-28 0 0 -95z"/>
<path d="M1350 2275 l-23 -25 26 0 c22 0 27 5 27 25 0 14 -1 25 -3 25 -2 0
-14 -11 -27 -25z"/>
<path d="M2420 2030 l0 -180 30 0 c28 0 30 2 30 40 0 38 8 49 125 174 69 74
125 137 125 140 0 3 -18 6 -39 6 -37 0 -45 -6 -118 -85 -43 -47 -81 -85 -85
-85 -5 0 -8 38 -8 85 l0 85 -30 0 -30 0 0 -180z"/>
<path d="M2950 2198 c0 -7 25 -80 56 -163 31 -82 58 -158 61 -167 4 -13 16
-18 39 -18 19 0 34 3 34 8 -1 4 -29 84 -63 177 -63 169 -63 170 -95 173 -21 2
-32 -1 -32 -10z"/>
<path d="M3330 2030 l0 -180 35 0 35 0 0 180 0 180 -35 0 -35 0 0 -180z"/>
<path d="M3614 2195 c-4 -8 -4 -22 0 -30 5 -13 28 -15 148 -13 l143 3 3 28 3
27 -146 0 c-120 0 -147 -3 -151 -15z"/>
<path d="M4012 2183 l3 -28 135 0 135 0 3 28 3 27 -141 0 -141 0 3 -27z"/>
<path d="M4503 2189 c-79 -39 -115 -126 -88 -215 25 -85 88 -124 200 -124 63
0 65 1 65 25 0 23 -4 25 -47 26 -69 0 -114 19 -140 58 -27 40 -29 80 -7 127
22 46 60 64 134 64 l60 0 0 30 0 30 -67 0 c-48 0 -80 -6 -110 -21z"/>
<path d="M4780 2030 l0 -180 35 0 35 0 0 180 0 180 -35 0 -35 0 0 -180z"/>
<path d="M5020 2136 l0 -76 -55 0 c-54 0 -55 0 -55 -30 0 -30 1 -30 55 -30
l55 0 0 -75 0 -75 35 0 35 0 -2 178 -3 177 -32 3 -33 3 0 -75z"/>
<path d="M2857 2002 c-25 -64 -49 -125 -53 -135 -6 -16 -2 -18 27 -15 33 3 35
6 72 97 35 85 37 96 26 125 -7 17 -15 34 -18 38 -4 4 -28 -45 -54 -110z"/>
<path d="M1432 2091 c7 -10 66 -73 130 -140 111 -116 118 -122 127 -99 36 95
91 249 91 253 0 3 -81 5 -181 5 -173 0 -180 -1 -167 -19z"/>
<path d="M3766 2083 c-113 -129 -156 -187 -156 -209 l0 -24 150 0 150 0 0 25
0 25 -100 0 c-55 0 -100 4 -100 8 0 4 34 49 75 100 41 51 75 94 75 97 0 3 -16
5 -35 5 -26 0 -41 -7 -59 -27z"/>
<path d="M4012 2033 l3 -28 123 -3 122 -3 0 31 0 30 -126 0 -125 0 3 -27z"/>
<path d="M1779 2035 c-11 -17 -111 -296 -107 -299 20 -17 108 -59 113 -55 3 4
4 87 3 185 -2 98 -6 175 -9 169z"/>
<path d="M2597 1982 c-10 -10 -17 -22 -17 -26 0 -4 19 -30 42 -57 36 -43 46
-49 80 -49 l38 0 -57 74 c-32 41 -61 75 -64 75 -3 1 -13 -7 -22 -17z"/>
<path d="M4010 1875 l0 -25 140 0 140 0 0 25 0 25 -140 0 -140 0 0 -25z"/>
</g>
</svg>
