<?xml version="1.0" standalone="no"?>
<!DOCTYPE svg PUBLIC "-//W3C//DTD SVG 20010904//EN"
 "http://www.w3.org/TR/2001/REC-SVG-20010904/DTD/svg10.dtd">
<svg version="1.0" xmlns="http://www.w3.org/2000/svg"
 width="79.000000pt" height="78.000000pt" viewBox="0 0 79.000000 78.000000"
 preserveAspectRatio="xMidYMid meet">

<g transform="translate(0.000000,78.000000) scale(0.100000,-0.100000)"
fill="#000000" stroke="none">
<path d="M500 629 l0 -121 120 113 c66 62 120 116 120 121 0 4 -54 8 -120 8
l-120 0 0 -121z"/>
<path d="M357 610 l-108 -115 107 -3 c59 -1 108 -1 111 1 2 3 2 56 1 118 l-3
114 -108 -115z"/>
<path d="M709 674 l-24 -27 32 17 c36 18 51 36 30 36 -7 0 -24 -12 -38 -26z"/>
<path d="M90 585 l0 -95 58 0 c51 0 62 4 86 29 l28 29 -62 66 c-43 46 -70 66
-86 66 -24 0 -24 -2 -24 -95z"/>
<path d="M40 635 l-23 -25 26 0 c22 0 27 5 27 25 0 14 -1 25 -3 25 -2 0 -14
-11 -27 -25z"/>
<path d="M120 462 c0 -18 250 -273 255 -259 2 6 23 67 48 135 25 67 42 124 38
126 -9 6 -341 4 -341 -2z"/>
<path d="M418 257 c-26 -72 -49 -139 -50 -146 -2 -9 18 -27 50 -44 l52 -28 0
175 c0 97 -1 176 -2 176 -2 0 -24 -60 -50 -133z"/>
</g>
</svg>
