<?xml version="1.0" standalone="no"?>
<!DOCTYPE svg PUBLIC "-//W3C//DTD SVG 20010904//EN"
 "http://www.w3.org/TR/2001/REC-SVG-20010904/DTD/svg10.dtd">
<svg version="1.0" xmlns="http://www.w3.org/2000/svg"
 width="415.000000pt" height="102.000000pt" viewBox="0 0 415.000000 102.000000"
 preserveAspectRatio="xMidYMid meet">

<g transform="translate(0.000000,102.000000) scale(0.100000,-0.100000)"
fill="#000000" stroke="none">
<path d="M690 823 l0 -165 165 159 c92 87 160 159 153 160 -7 1 -82 4 -165 6
l-153 4 0 -164z"/>
<path d="M502 800 l-153 -160 155 0 156 0 0 160 c0 88 -1 160 -3 160 -1 0 -71
-72 -155 -160z"/>
<path d="M965 878 l-40 -41 40 23 c64 38 75 46 68 53 -14 14 -30 6 -68 -35z"/>
<path d="M150 765 l0 -125 78 0 c75 0 79 1 110 33 18 18 32 36 32 41 0 4 -35
45 -77 92 -67 72 -83 84 -110 84 l-33 0 0 -125z"/>
<path d="M80 830 l-34 -30 37 0 c34 0 37 2 37 30 0 17 -1 30 -2 30 -2 -1 -19
-14 -38 -30z"/>
<path d="M1270 510 l0 -190 30 0 c29 0 30 2 30 43 0 40 6 48 135 187 l135 145
-37 3 c-34 3 -42 -2 -127 -87 -50 -50 -95 -91 -99 -91 -4 0 -7 41 -7 90 l0 90
-30 0 -30 0 0 -190z"/>
<path d="M1836 678 c3 -13 29 -84 56 -158 27 -74 55 -150 61 -167 9 -29 15
-33 44 -33 18 0 33 2 33 5 0 3 -30 89 -67 190 l-66 185 -34 0 c-31 0 -34 -2
-27 -22z"/>
<path d="M2240 510 l0 -190 30 0 30 0 0 190 0 190 -30 0 -30 0 0 -190z"/>
<path d="M2540 670 l0 -31 148 3 147 3 3 28 3 27 -150 0 -151 0 0 -30z"/>
<path d="M2960 670 l0 -30 140 0 140 0 0 30 0 30 -140 0 -140 0 0 -30z"/>
<path d="M3484 681 c-122 -55 -150 -208 -55 -302 42 -42 91 -59 174 -59 57 0
57 0 57 30 l0 30 -66 0 c-103 0 -154 45 -154 135 0 82 53 125 154 125 l66 0 0
30 0 30 -67 0 c-44 0 -82 -7 -109 -19z"/>
<path d="M3770 510 l0 -190 35 0 35 0 0 190 0 190 -35 0 -35 0 0 -190z"/>
<path d="M4030 620 l0 -80 -60 0 -60 0 0 -30 0 -30 60 0 60 0 0 -80 0 -80 30
0 30 0 0 190 0 190 -30 0 -30 0 0 -80z"/>
<path d="M180 603 c0 -6 41 -51 241 -259 l97 -101 37 101 c20 56 49 135 65
176 15 41 26 78 23 83 -5 9 -463 10 -463 0z"/>
<path d="M1742 498 c-23 -57 -48 -120 -57 -140 l-15 -38 34 0 c34 0 34 1 75
103 41 101 41 104 26 140 -8 20 -17 37 -19 37 -2 0 -22 -46 -44 -102z"/>
<path d="M2622 479 c-58 -71 -92 -120 -92 -135 l0 -24 155 0 155 0 0 30 0 30
-105 0 c-58 0 -105 3 -105 6 0 3 31 42 68 87 106 128 101 117 55 117 -39 0
-43 -4 -131 -111z"/>
<path d="M2960 510 l0 -30 125 0 125 0 0 30 0 30 -125 0 -125 0 0 -30z"/>
<path d="M648 510 c-16 -33 -138 -373 -138 -383 0 -13 138 -92 146 -84 2 2 3
112 2 243 -2 131 -6 232 -10 224z"/>
<path d="M1457 462 c-10 -10 -17 -22 -17 -26 0 -4 21 -32 46 -62 39 -46 52
-54 80 -54 19 0 34 3 34 6 0 6 -119 154 -124 154 -2 0 -10 -8 -19 -18z"/>
<path d="M2960 350 l0 -30 140 0 140 0 0 30 0 30 -140 0 -140 0 0 -30z"/>
</g>
</svg>
