<?xml version="1.0" encoding="UTF-8"?>
<svg version="1.1" xmlns="http://www.w3.org/2000/svg" width="432" height="408">
<path d="M0 0 C1.70122261 0.01068764 1.70122261 0.01068764 3.43681335 0.02159119 C7.25982466 0.05391937 11.08010527 0.13648406 14.90234375 0.21875 C17.61679575 0.2559298 20.33132373 0.28234572 23.04589844 0.30883789 C29.14119254 0.37323062 35.23576408 0.46286842 41.33056641 0.56298828 C52.07948264 0.73628018 62.82875892 0.82408547 73.57868767 0.9080162 C83.24912572 0.98431932 92.91949064 1.06992941 102.58984375 1.15625 C103.65431355 1.16570648 104.71878334 1.17516296 105.8155098 1.18490601 C111.98691174 1.24054892 118.15821352 1.3018571 124.32947731 1.37118721 C126.23053038 1.39182678 128.13160264 1.41077349 130.03269005 1.42796135 C132.64523929 1.45189572 135.25765068 1.48185489 137.87011719 1.51342773 C138.63945619 1.51918068 139.40879519 1.52493362 140.20144749 1.5308609 C143.34074642 1.57453029 145.83944962 1.71861862 148.83984375 2.71875 C149.91718823 5.56463846 150.33377475 6.77818341 149.83984375 9.71875 C147.13207955 13.47879853 143.79220254 16.51483752 140.40234375 19.65625 C139.49162109 20.53087891 138.58089844 21.40550781 137.64257812 22.30664062 C135.3918863 24.46306263 133.1247243 26.59868258 130.83984375 28.71875 C137.24801354 31.99471118 143.6493693 34.92653172 150.37109375 37.5078125 C152.83984375 38.71875 152.83984375 38.71875 154.83984375 41.71875 C154.78125 44.19140625 154.78125 44.19140625 153.83984375 46.71875 C151.7421875 48.46484375 151.7421875 48.46484375 148.77734375 50.15625 C147.92946289 50.65040405 147.92946289 50.65040405 147.06445312 51.15454102 C145.74993934 51.91855958 144.43104621 52.6750715 143.10888672 53.42578125 C140.61310188 54.84795432 138.13406832 56.29675527 135.65625 57.75 C131.63076144 60.10930379 127.60056692 62.46024217 123.56640625 64.8046875 C116.44016851 68.94814291 109.32621878 73.11235948 102.21484375 77.28125 C101.6040094 77.63916626 100.99317505 77.99708252 100.36383057 78.36584473 C94.066554 82.05594998 87.77376322 85.75315943 81.49609375 89.4765625 C80.02390381 90.34945923 80.02390381 90.34945923 78.52197266 91.23999023 C76.73150031 92.30278148 74.94200747 93.36722584 73.15380859 94.43383789 C72.34637207 94.91328857 71.53893555 95.39273926 70.70703125 95.88671875 C69.95615234 96.334673 69.20527344 96.78262726 68.43164062 97.24415588 C65.83984375 98.71875 65.83984375 98.71875 63.42300415 99.86520386 C54.60834483 104.1454995 48.41667364 110.42883596 41.62109375 117.30859375 C40.38927078 118.53958617 39.15662992 119.76976065 37.92321777 120.99916077 C35.35709806 123.56244 32.7998789 126.13417887 30.24902344 128.71264648 C26.98836641 132.00750907 23.70789695 135.28177841 20.420784 138.55022335 C17.87907882 141.08133871 15.34724555 143.62214571 12.81834412 146.16604805 C11.61233178 147.37721954 10.40351467 148.58560525 9.19178772 149.79105949 C7.50002457 151.47734152 5.82180063 153.17605917 4.14648438 154.87866211 C3.65091034 155.36771027 3.1553363 155.85675842 2.64474487 156.36062622 C-2.12889072 161.26647621 -4.54403248 166.41513573 -4.51660156 173.26953125 C-4.51956238 174.33654266 -4.52252319 175.40355408 -4.52557373 176.50289917 C-4.51326721 177.66725494 -4.50096069 178.83161072 -4.48828125 180.03125 C-4.48677063 181.29494415 -4.48526001 182.55863831 -4.48370361 183.86062622 C-4.47861243 187.39657485 -4.45399342 190.93216249 -4.42605591 194.46799469 C-4.40457737 197.50849567 -4.39465721 200.54899069 -4.38476562 203.58954811 C-4.34617925 215.29956253 -4.25625708 227.00908767 -4.16015625 238.71875 C-4.14702896 240.32826286 -4.14702896 240.32826286 -4.13363647 241.97029114 C-3.938735 265.75943632 -3.72772179 289.54841419 -3.48078537 313.33707809 C-3.38957616 322.22586573 -3.31307745 331.1147219 -3.24449539 340.0037117 C-3.19227713 346.5635059 -3.11813018 353.12264841 -3.02947235 359.68204689 C-2.97631249 363.90233101 -2.93969228 368.12264664 -2.90724182 372.34313583 C-2.88852953 374.31952701 -2.86281784 376.2958658 -2.82969666 378.27206802 C-2.78530702 380.97438305 -2.76560526 383.67579859 -2.75195312 386.37841797 C-2.73289917 387.17085278 -2.71384521 387.96328758 -2.69421387 388.77973557 C-2.70050558 392.33773053 -2.87850892 394.33541131 -5.01390076 397.24180603 C-7.16015625 398.71875 -7.16015625 398.71875 -9.90844727 398.69018555 C-13.86137286 397.50926423 -17.46691467 395.94491127 -21.1875 394.17578125 C-21.96157196 393.81522141 -22.73564392 393.45466156 -23.53317261 393.08317566 C-26.05780137 391.90577898 -28.57767346 390.71855331 -31.09765625 389.53125 C-34.60928774 387.88894573 -38.123088 386.25130288 -41.63671875 384.61328125 C-42.51908707 384.20103302 -43.40145538 383.78878479 -44.31056213 383.36404419 C-50.04014642 380.6911741 -55.7882475 378.06410958 -61.55859375 375.48046875 C-62.28125931 375.15665726 -63.00392487 374.83284576 -63.74848938 374.4992218 C-66.49258361 373.27111509 -69.23737746 372.04469718 -71.98580933 370.82632446 C-73.84375907 370.00252669 -75.69929192 369.17328435 -77.5546875 368.34375 C-79.11473511 367.65152344 -79.11473511 367.65152344 -80.70629883 366.9453125 C-83.16015625 365.71875 -83.16015625 365.71875 -85.16015625 363.71875 C-85.39479296 357.72928036 -83.50303229 352.06532747 -81.40234375 346.54296875 C-81.13503448 345.81052444 -80.86772522 345.07808014 -80.59231567 344.32344055 C-79.4622862 341.22744081 -78.30908014 338.14024116 -77.15673828 335.05249023 C-76.31314072 332.78161294 -75.48240359 330.50632192 -74.65234375 328.23046875 C-74.38783417 327.53563889 -74.12332458 326.84080902 -73.85079956 326.12492371 C-72.54832098 322.54674513 -71.78054514 320.30347412 -73.16015625 316.71875 C-74.68111944 314.7715477 -74.68111944 314.7715477 -76.65087891 312.90332031 C-77.38899811 312.1686554 -78.12711731 311.43399048 -78.88760376 310.67706299 C-79.69168671 309.89160095 -80.49576965 309.10613892 -81.32421875 308.296875 C-82.56236832 307.06865021 -82.56236832 307.06865021 -83.82553101 305.81561279 C-86.47175489 303.19281841 -89.12788495 300.5803472 -91.78515625 297.96875 C-94.4193193 295.36979917 -97.05129289 292.76868669 -99.68051147 290.16473389 C-101.31676585 288.54527167 -102.95610403 286.92891717 -104.59902954 285.31622314 C-108.70213799 281.26600626 -112.59032725 277.12747335 -116.34872437 272.75750732 C-119.84142122 268.82649487 -123.61177189 265.16668228 -127.34765625 261.46875 C-128.2089917 260.61120117 -129.07032715 259.75365234 -129.95776367 258.87011719 C-132.68946745 256.15054111 -135.424389 253.434238 -138.16015625 250.71875 C-141.76727476 247.13836974 -145.37097427 243.55459819 -148.97265625 239.96875 C-150.19795044 238.75590332 -150.19795044 238.75590332 -151.44799805 237.51855469 C-154.9667681 234.0147302 -158.40785658 230.49815395 -161.64648438 226.73242188 C-165.71787575 222.00082071 -170.13272419 217.63981584 -174.56640625 213.25 C-175.44993774 212.37025513 -176.33346924 211.49051025 -177.24377441 210.58410645 C-180.04680758 207.79320494 -182.85295541 205.00545768 -185.66015625 202.21875 C-189.36116175 198.54476262 -193.05847447 194.86709398 -196.75390625 191.1875 C-197.59264282 190.35706177 -198.43137939 189.52662354 -199.29553223 188.67102051 C-203.59791228 184.38645569 -207.73112819 180.04134218 -211.6399231 175.39297485 C-213.1370596 173.74418622 -214.66619582 172.43530086 -216.43359375 171.0859375 C-224.44317018 164.650031 -224.44317018 164.650031 -225.70495605 159.49142456 C-225.94197579 156.91866109 -226.00713113 154.39617387 -226.0078125 151.8125 C-226.02919785 150.8573349 -226.05058319 149.9021698 -226.07261658 148.9180603 C-226.13199151 145.85119027 -226.14955388 142.78614787 -226.16015625 139.71875 C-226.17998013 137.68505507 -226.20016124 135.65136359 -226.22070312 133.61767578 C-226.2664395 127.52604076 -226.24839849 121.43543225 -226.22265625 115.34375 C-226.21762075 113.22786567 -226.21306154 111.11198015 -226.20898438 108.99609375 C-226.19816513 103.90361545 -226.18101904 98.81119664 -226.16015625 93.71875 C-227.82570557 93.73446045 -227.82570557 93.73446045 -229.52490234 93.75048828 C-233.63603504 93.78662949 -237.74715364 93.80962896 -241.85839844 93.82861328 C-243.63934692 93.83868431 -245.42027882 93.85234185 -247.20117188 93.86962891 C-249.75785408 93.89382913 -252.3143181 93.90522184 -254.87109375 93.9140625 C-255.67010101 93.92438507 -256.46910828 93.93470764 -257.29232788 93.94534302 C-259.24972845 93.94574226 -261.20658702 93.84116069 -263.16015625 93.71875 C-265.16015625 91.71875 -265.16015625 91.71875 -265.59765625 88.96875 C-264.61526907 81.67101664 -257.8116439 77.67538328 -252.40625 73.35546875 C-247.98598766 69.80241189 -243.73517883 66.05280541 -239.46337891 62.32397461 C-238.86187012 61.79940674 -238.26036133 61.27483887 -237.640625 60.734375 C-237.05958008 60.22624268 -236.47853516 59.71811035 -235.87988281 59.19458008 C-234.20702159 57.75896877 -232.49908691 56.37728591 -230.78125 54.99609375 C-228.00856831 52.58704244 -227.42428088 51.0596508 -226.16015625 47.71875 C-223.28331934 45.89732306 -220.92431838 45.43828067 -217.5546875 45.3046875 C-216.21531128 45.24510864 -216.21531128 45.24510864 -214.84887695 45.18432617 C-210.9033831 45.06007711 -206.95773913 44.94365126 -203.01171875 44.83740234 C-200.42680012 44.72984494 -197.88795742 44.51280297 -195.31640625 44.23828125 C-185.3329381 43.35276619 -185.3329381 43.35276619 -181.48486328 45.77197266 C-177.76759795 48.9461498 -175.00547557 52.77154282 -172.16015625 56.71875 C-171.03183528 58.02574219 -169.88813927 59.31978527 -168.72265625 60.59375 C-166.61734728 63.015609 -164.5326077 65.45442113 -162.453125 67.8984375 C-156.62986259 74.73501982 -150.71386482 81.45305326 -144.6171875 88.046875 C-141.99732875 90.8958152 -139.44477001 93.79419567 -136.91015625 96.71875 C-134.81111458 99.11765477 -132.67374234 101.48004958 -130.53515625 103.84375 C-127.32166332 107.4033114 -124.19130924 111.00314311 -121.16015625 114.71875 C-117.07887466 113.10182221 -114.35411692 110.17597594 -111.34765625 107.09375 C-110.81358154 106.55322998 -110.27950684 106.01270996 -109.72924805 105.45581055 C-106.30354803 101.9635416 -103.03780991 98.37059116 -99.8671875 94.64453125 C-97.16915925 91.60076025 -94.24217892 88.7929075 -91.34765625 85.9375 C-89.36295283 83.92444368 -87.49918709 81.86428597 -85.66015625 79.71875 C-82.40850997 75.92516267 -78.90302531 72.44482353 -75.34765625 68.9375 C-73.36295283 66.92444368 -71.49918709 64.86428597 -69.66015625 62.71875 C-66.40850997 58.92516267 -62.90302531 55.44482353 -59.34765625 51.9375 C-57.36295283 49.92444368 -55.49918709 47.86428597 -53.66015625 45.71875 C-50.40850997 41.92516267 -46.90302531 38.44482353 -43.34765625 34.9375 C-41.36295283 32.92444368 -39.49918709 30.86428597 -37.66015625 28.71875 C-34.41090952 24.92796215 -30.90829593 21.44996576 -27.35546875 17.9453125 C-24.79173309 15.34508239 -22.4064575 12.6310134 -20.05859375 9.8359375 C-19.43210937 9.13726562 -18.805625 8.43859375 -18.16015625 7.71875 C-17.72313889 7.15354645 -17.28612152 6.5883429 -16.83586121 6.00601196 C-11.75308906 0.0389479 -7.57147104 -0.23904371 0 0 Z M-3.16015625 14.71875 C-3.16015625 22.96875 -3.16015625 31.21875 -3.16015625 39.71875 C-2.83015625 39.71875 -2.50015625 39.71875 -2.16015625 39.71875 C-2.16015625 31.46875 -2.16015625 23.21875 -2.16015625 14.71875 C-2.49015625 14.71875 -2.82015625 14.71875 -3.16015625 14.71875 Z M-3.16015625 145.71875 C-2.83015625 146.37875 -2.50015625 147.03875 -2.16015625 147.71875 C-1.83015625 147.05875 -1.50015625 146.39875 -1.16015625 145.71875 C-1.82015625 145.71875 -2.48015625 145.71875 -3.16015625 145.71875 Z " fill="#323333" transform="translate(276.16015625,1.28125)"/>
<path d="M0 0 C9.42558501 -0.02351863 18.85115942 -0.04111091 28.27676773 -0.05181217 C32.65685334 -0.05695687 37.0369184 -0.06389433 41.41699219 -0.07543945 C58.88345265 -0.12023419 76.31913168 -0.11354297 93.77404785 0.6111908 C102.55190123 0.97148121 111.32571179 1.16072379 120.109375 1.28125 C121.13300518 1.29557918 121.13300518 1.29557918 122.17731476 1.31019783 C127.73567909 1.38730135 133.29412896 1.45716401 138.8526001 1.52606201 C143.70908019 1.58650209 148.56550467 1.65002521 153.421875 1.71875 C154.08833542 1.72813599 154.75479584 1.73752197 155.44145203 1.74719238 C167.97219594 1.93013273 180.48378052 2.37940581 193 3 C191.79700016 6.94864286 190.58824636 10.89546764 189.37451172 14.84082031 C188.9638103 16.17857022 188.55458768 17.51677519 188.14697266 18.85546875 C186.01999596 25.83738733 183.80610487 32.70952129 181.00488281 39.45703125 C178.46568071 45.88276717 176.48174847 52.52846165 174.35546875 59.09960938 C172.45129844 64.90700165 170.47752254 70.53953168 167.81445312 76.04589844 C166.90017837 78.23950011 166.43402772 80.3545374 166 82.6875 C165.17735056 86.88734186 163.38375121 89.42437319 161 93 C159.89752411 95.97412101 158.94728087 98.9794439 157.9921875 102.00390625 C157.15934219 104.51883678 156.23885579 106.85198816 155.125 109.25 C152.31075393 115.34201502 150.09042492 121.67060471 147.76123047 127.95898438 C145.88503909 132.98943976 143.93764961 137.99297622 142 143 C139 143 139 143 136.62744141 140.96801758 C135.71140137 140.03626709 134.79536133 139.1045166 133.8515625 138.14453125 C133.35715668 137.64588058 132.86275085 137.14722992 132.35336304 136.63346863 C130.77007112 135.03337566 129.19748133 133.42321138 127.625 131.8125 C126.57361151 130.74605931 125.52153557 129.6802959 124.46875 128.61523438 C122.5186003 126.64061809 120.57349502 124.66148575 118.63134766 122.67895508 C116.85983454 120.87539102 115.07876441 119.08117016 113.28881836 117.29589844 C111.07800385 115.07824514 109.00335443 112.78994696 106.9375 110.4375 C102.88606863 105.89908522 98.64493466 101.60633685 94.31567383 97.33740234 C91.45968866 94.506667 88.73121315 91.62422386 86.125 88.5625 C83.32938368 85.27832938 80.35901364 82.70181532 77 80 C73.62974975 76.79826226 70.59002431 73.41525656 67.625 69.84375 C65.51887672 67.45411013 63.26389878 65.24049066 61 63 C60.13761719 62.12601563 59.27523437 61.25203125 58.38671875 60.3515625 C57.49597656 59.45179688 56.60523438 58.55203125 55.6875 57.625 C54.80449219 56.73039062 53.92148438 55.83578125 53.01171875 54.9140625 C50.81108297 52.73739961 48.52385155 50.69673174 46.1796875 48.67578125 C41.73840251 44.82586159 37.58098206 40.72848061 33.4375 36.5625 C32.36338867 35.49418945 32.36338867 35.49418945 31.26757812 34.40429688 C27.91383373 31.04444921 24.65473023 27.65367557 21.5625 24.05078125 C16.72668264 18.43769252 11.35949075 13.35004945 6.05664062 8.18359375 C5.27611328 7.41402344 4.49558594 6.64445313 3.69140625 5.8515625 C2.98185791 5.15885254 2.27230957 4.46614258 1.54125977 3.75244141 C0 2 0 2 0 0 Z " fill="#016665" transform="translate(66,164)"/>
<path d="M0 0 C76 0 76 0 86 2 C87.65549933 2.13401051 89.31426179 2.23143516 90.97387695 2.29711914 C91.93449539 2.33708511 92.89511383 2.37705109 93.88484192 2.41822815 C94.9089769 2.45681442 95.93311188 2.4954007 96.98828125 2.53515625 C98.04661667 2.57813339 99.10495209 2.62111053 100.19535828 2.66539001 C103.56760213 2.8014774 106.94003345 2.93205984 110.3125 3.0625 C112.60222807 3.15393377 114.89194184 3.24572644 117.18164062 3.33789062 C122.78760174 3.56275503 128.39373795 3.78278405 134 4 C128.8589079 10.22401188 123.23563962 15.8927346 117.51586914 21.58178711 C116.46209236 22.63364147 115.40854542 23.68572615 114.35520935 24.73802185 C112.09771226 26.99237308 109.83867477 29.24516488 107.57841682 31.49674797 C103.99851336 35.06305401 100.42249419 38.63323817 96.84703064 42.20399475 C88.61077073 50.42824408 80.36949962 58.64746584 72.1281662 66.86663055 C64.57342237 74.40115309 57.01976195 81.93675347 49.47015661 89.47642523 C45.92179686 93.01982716 42.37101916 96.56078209 38.81831944 100.09983242 C36.6017389 102.30890932 34.38727194 104.52009592 32.17334938 106.73183632 C31.1532023 107.75012472 30.13219796 108.76755521 29.11023331 109.78401947 C24.03987756 114.82796219 19.07085827 119.89685945 14.42819881 125.34008121 C12.30094654 127.81247229 10.04740716 130.12203146 7.75 132.4375 C6.91984375 133.28183594 6.0896875 134.12617188 5.234375 134.99609375 C3 137 3 137 0 138 C0 92.46 0 46.92 0 0 Z M1 3 C1 11.25 1 19.5 1 28 C1.33 28 1.66 28 2 28 C2 19.75 2 11.5 2 3 C1.67 3 1.34 3 1 3 Z M1 134 C1.33 134.66 1.66 135.32 2 136 C2.33 135.34 2.66 134.68 3 134 C2.34 134 1.68 134 1 134 Z " fill="#CCF1F0" transform="translate(272,13)"/>
<path d="M0 0 C0.66 0 1.32 0 2 0 C2 42.57 2 85.14 2 129 C-38.26 129 -78.52 129 -120 129 C-113.3360161 121.22535211 -113.3360161 121.22535211 -110.5625 118.5625 C-108.12837912 116.17098955 -105.84611167 113.71544202 -103.625 111.125 C-100.39852835 107.37766297 -96.95440285 103.91098784 -93.40625 100.46875 C-90.76810148 97.76207814 -88.30637846 94.93714405 -85.82958984 92.08349609 C-82.9811969 88.83980976 -80.02506142 85.70166717 -77.0625 82.5625 C-76.42207764 81.88147217 -75.78165527 81.20044434 -75.12182617 80.4987793 C-73.08275003 78.33107043 -71.04165768 76.16527744 -69 74 C-66.27043812 71.10453882 -63.54126104 68.20871593 -60.8125 65.3125 C-60.14484619 64.60432129 -59.47719238 63.89614258 -58.78930664 63.16650391 C-54.16432635 58.25476916 -49.58645673 53.30203431 -45.02587891 48.33056641 C-41.70844094 44.72874385 -38.28372015 41.26063433 -34.796875 37.82421875 C-31.01184024 33.98158564 -27.5516525 29.8417989 -24.078125 25.71875 C-23.45421875 24.9865625 -22.8303125 24.254375 -22.1875 23.5 C-21.62417969 22.8296875 -21.06085938 22.159375 -20.48046875 21.46875 C-19 20 -19 20 -17 20 C-16.78085938 19.45214844 -16.56171875 18.90429688 -16.3359375 18.33984375 C-14.57335876 15.25275408 -12.17031001 12.99728997 -9.625 10.5625 C-6.83370576 7.87196103 -4.16810698 5.21499998 -1.7734375 2.15234375 C-1.18820312 1.44207031 -0.60296875 0.73179688 0 0 Z " fill="#98DCDB" transform="translate(261,23)"/>
<path d="M0 0 C9.9 0 19.8 0 30 0 C35.71549166 6.28704083 41.08964359 12.34417012 46.37890625 18.90625 C50.20712049 23.51789134 54.37857983 27.82693898 58.50854492 32.16674805 C64.89405542 38.88384155 70.9240771 45.88832031 76.9375 52.9375 C81.56270829 58.34814851 86.23955137 63.70750123 91 69 C89.38976468 73.09878081 86.42208279 75.76238955 83.3125 78.75 C79.16360766 82.80409238 75.19807632 86.90076696 71.5 91.37890625 C68.8122774 94.28360646 67.06551723 95.88483734 63.0133667 96.32279968 C61.84976624 96.29837296 60.68616577 96.27394623 59.48730469 96.2487793 C58.5052751 96.23445343 58.5052751 96.23445343 57.50340652 96.21983814 C55.39235163 96.18557503 53.28245012 96.13033361 51.171875 96.07421875 C49.87846191 96.05153931 48.58504883 96.02885986 47.25244141 96.00549316 C42.41795645 95.91622242 37.58399435 95.80025055 32.75 95.6875 C16.53875 95.3471875 16.53875 95.3471875 0 95 C0 63.65 0 32.3 0 0 Z " fill="#33A8A7" transform="translate(59,56)"/>
<path d="M0 0 C0.33 0 0.66 0 1 0 C1.17625782 15.04156432 1.34211577 30.08323158 1.5 45.125 C1.51187725 46.25601387 1.5237545 47.38702774 1.53599167 48.55231476 C1.90697612 84.16040976 2.09211948 119.76498135 2.0625 155.375 C2.06121597 156.93008144 2.06121597 156.93008144 2.05990601 158.51657867 C2.04879759 171.01107132 2.02917073 183.50553673 2 196 C-4.51150319 193.70123218 -10.89879871 191.28658786 -17.16796875 188.390625 C-17.89131912 188.06012146 -18.61466949 187.72961792 -19.35993958 187.38909912 C-20.87574511 186.6953654 -22.39060948 185.99957168 -23.90454102 185.30175781 C-26.16377126 184.26093181 -28.42631628 183.2276119 -30.68945312 182.1953125 C-40.56789577 177.67240935 -50.31396262 172.92078018 -60 168 C-58.85829945 164.53178605 -57.68533058 161.08924344 -56.37890625 157.6796875 C-53.0424858 148.86989442 -49.93651854 140.23995989 -48 131 C-47.34 131 -46.68 131 -46 131 C-45.87882813 130.41992188 -45.75765625 129.83984375 -45.6328125 129.2421875 C-45.46523437 128.46101562 -45.29765625 127.67984375 -45.125 126.875 C-44.96257812 126.10929687 -44.80015625 125.34359375 -44.6328125 124.5546875 C-43.23915261 118.92843089 -41.10944323 113.53882971 -39.0625 108.125 C-38.81048828 107.45597656 -38.55847656 106.78695312 -38.29882812 106.09765625 C-38.04681641 105.42863281 -37.79480469 104.75960937 -37.53515625 104.0703125 C-37.15641357 103.06339355 -37.15641357 103.06339355 -36.77001953 102.03613281 C-36.25499372 100.67427001 -35.73509899 99.31423896 -35.21044922 97.95605469 C-33.9998551 94.7983139 -32.91512453 91.70030404 -31.9921875 88.44140625 C-30.59459727 83.59385902 -28.59264415 79.0454004 -26.6328125 74.40234375 C-25.21154616 70.7968385 -24.15961427 67.13505784 -23.12109375 63.40234375 C-21.05675615 56.01416222 -18.55844939 48.83162847 -15.9375 41.625 C-15.50373047 40.41972656 -15.06996094 39.21445313 -14.62304688 37.97265625 C-12.4569593 31.96563713 -10.25467774 25.97425909 -8 20 C-7.48751769 18.620075 -6.97581875 17.23985885 -6.46484375 15.859375 C-5.95572917 14.48958333 -5.44661458 13.11979167 -4.9375 11.75 C-4.68162109 11.05648437 -4.42574219 10.36296875 -4.16210938 9.6484375 C-2.92936854 6.34000195 -1.67596806 3.11136654 0 0 Z " fill="#CAF0EF" transform="translate(261,192)"/>
<path d="M0 0 C4.72065967 1.54269924 9.41664092 3.07794619 14 5 C14 5.99 14 6.98 14 8 C13.45811035 8.30591064 12.9162207 8.61182129 12.35791016 8.92700195 C9.77845534 10.38565134 7.20133146 11.84834072 4.625 13.3125 C3.68285645 13.8477832 2.74071289 14.38306641 1.77001953 14.93457031 C-5.39045985 19.02592961 -12.44061654 23.27135952 -19.39990234 27.6965332 C-20.0955127 28.1318335 -20.79112305 28.56713379 -21.5078125 29.015625 C-22.11254395 29.40008789 -22.71727539 29.78455078 -23.34033203 30.18066406 C-25 31 -25 31 -28 31 C-27.58226318 30.55720703 -27.16452637 30.11441406 -26.73413086 29.65820312 C-24.80044849 27.60685083 -22.86896851 25.55343683 -20.9375 23.5 C-20.28072266 22.80390625 -19.62394531 22.1078125 -18.94726562 21.390625 C-12.41706446 14.44223361 -6.1920433 7.24922142 0 0 Z " fill="#65CACA" transform="translate(400,39)"/>
<path d="M0 0 C0 7.59 0 15.18 0 23 C-12.87 22.505 -12.87 22.505 -26 22 C-22.91005814 18.13757267 -20.58167403 15.66259119 -16.8125 12.6875 C-12.30901874 9.08954447 -8.00265934 5.35328072 -3.77734375 1.43359375 C-2 0 -2 0 0 0 Z " fill="#018585" transform="translate(52,64)"/>
<path d="M0 0 C9.98346815 -0.88551506 9.98346815 -0.88551506 13.83154297 1.53369141 C17.5488083 4.70786855 20.31093068 8.53326157 23.15625 12.48046875 C24.28457097 13.78746094 25.42826698 15.08150402 26.59375 16.35546875 C28.69905897 18.77732775 30.78379855 21.21613988 32.86328125 23.66015625 C38.68654366 30.49673857 44.60254143 37.21477201 50.69921875 43.80859375 C53.3190775 46.65753395 55.87163624 49.55591442 58.40625 52.48046875 C60.50529167 54.87937352 62.64266391 57.24176833 64.78125 59.60546875 C67.99474293 63.16503015 71.12509701 66.76486186 74.15625 70.48046875 C78.05910767 68.89379297 80.49145982 66.34696394 83.40625 63.35546875 C84.74429688 61.99035156 84.74429688 61.99035156 86.109375 60.59765625 C86.78484375 59.89898437 87.4603125 59.2003125 88.15625 58.48046875 C88.15625 61.48046875 88.15625 61.48046875 86.96289062 63.0144043 C86.41826172 63.54332275 85.87363281 64.07224121 85.3125 64.6171875 C84.72597656 65.19404297 84.13945312 65.77089844 83.53515625 66.36523438 C82.91511719 66.96013672 82.29507813 67.55503906 81.65625 68.16796875 C80.72619141 69.07772461 80.72619141 69.07772461 79.77734375 70.00585938 C78.24360293 71.50420618 76.70076802 72.99323368 75.15625 74.48046875 C66.44967507 65.87063355 58.19245382 56.89561632 50.5390625 47.3359375 C46.59836474 42.61356034 42.35742297 38.17357659 38.15234375 33.6875 C34.72534262 30.03055543 31.41491238 26.28788716 28.15625 22.48046875 C27.18632991 21.35275105 26.21626352 20.22515917 25.24609375 19.09765625 C23.17032902 16.68231299 21.09517927 14.26645146 19.0234375 11.84765625 C18.52924316 11.29053955 18.03504883 10.73342285 17.52587891 10.15942383 C16.15625 8.48046875 16.15625 8.48046875 14.171875 5.046875 C9.10900016 0.73818488 3.39463606 2.08254411 -2.96875 2.54296875 C-4.87140625 2.64254883 -4.87140625 2.64254883 -6.8125 2.74414062 C-10.49375069 2.94717868 -14.16701807 3.20876656 -17.84375 3.48046875 C-19.48404175 3.57026001 -19.48404175 3.57026001 -21.1574707 3.66186523 C-22.14577881 3.72575439 -23.13408691 3.78964355 -24.15234375 3.85546875 C-25.44869751 3.93087891 -25.44869751 3.93087891 -26.77124023 4.0078125 C-29.22048662 4.31512526 -29.22048662 4.31512526 -30.78125 7.41796875 C-31.131875 8.42859375 -31.4825 9.43921875 -31.84375 10.48046875 C-34.03125 11.85546875 -34.03125 11.85546875 -35.84375 12.48046875 C-35.163125 11.64515625 -35.163125 11.64515625 -34.46875 10.79296875 C-32.73508497 8.54398194 -32.73508497 8.54398194 -31.90625 5.85546875 C-30.59834395 2.93191404 -29.7655596 2.63454982 -26.84375 1.48046875 C-24.63989258 1.16162109 -24.63989258 1.16162109 -22.23828125 1.06640625 C-20.89890503 1.00682739 -20.89890503 1.00682739 -19.5324707 0.94604492 C-15.58697685 0.82179586 -11.64133288 0.70537001 -7.6953125 0.59912109 C-5.11039387 0.49156369 -2.57155117 0.27452172 0 0 Z " fill="#D4D4D4" transform="translate(80.84375,45.51953125)"/>
<path d="M0 0 C0.33 1.32 0.66 2.64 1 4 C0.34 4 -0.32 4 -1 4 C-1.268125 4.721875 -1.53625 5.44375 -1.8125 6.1875 C-2.98982498 8.97590126 -4.39145884 11.44095724 -6 14 C-5.34 14 -4.68 14 -4 14 C-5.1515735 17.45472049 -5.69623132 17.71323937 -8.7109375 19.48046875 C-9.46117187 19.92197266 -10.21140625 20.36347656 -10.984375 20.81835938 C-11.77328125 21.27017578 -12.5621875 21.72199219 -13.375 22.1875 C-14.15617187 22.65091797 -14.93734375 23.11433594 -15.7421875 23.59179688 C-21.60489921 27 -21.60489921 27 -25 27 C-24.58226318 26.55720703 -24.16452637 26.11441406 -23.73413086 25.65820312 C-21.80044849 23.60685083 -19.86896851 21.55343683 -17.9375 19.5 C-17.28072266 18.80390625 -16.62394531 18.1078125 -15.94726562 17.390625 C-12.0554809 13.24961268 -8.2530538 9.05085531 -4.54516602 4.74414062 C-3.08588959 3.09694979 -1.57314421 1.5380017 0 0 Z " fill="#64C6C7" transform="translate(397,43)"/>
<path d="M0 0 C0 1.66666667 0 3.33333333 0 5 C38.28 5.33 76.56 5.66 116 6 C116 6.33 116 6.66 116 7 C75.74 7 35.48 7 -6 7 C-4.02 4.69 -2.04 2.38 0 0 Z " fill="#96D2D1" transform="translate(147,145)"/>
<path d="M0 0 C0 7.59 0 15.18 0 23 C-12.87 22.505 -12.87 22.505 -26 22 C-24 20 -24 20 -21.84521484 19.86474609 C-20.97590332 19.91711426 -20.1065918 19.96948242 -19.2109375 20.0234375 C-17.79941406 20.10078125 -17.79941406 20.10078125 -16.359375 20.1796875 C-14.88210937 20.27636719 -14.88210937 20.27636719 -13.375 20.375 C-12.38242187 20.43171875 -11.38984375 20.4884375 -10.3671875 20.546875 C-7.9109021 20.68858377 -5.45536147 20.84309434 -3 21 C-3 15.39 -3 9.78 -3 4 C-3.66 3.67 -4.32 3.34 -5 3 C-2.25 0 -2.25 0 0 0 Z " fill="#518687" transform="translate(52,64)"/>
<path d="M0 0 C0 1.66666667 0 3.33333333 0 5 C20.295 5.495 20.295 5.495 41 6 C41 6.33 41 6.66 41 7 C25.49 7 9.98 7 -6 7 C-4.02 4.69 -2.04 2.38 0 0 Z " fill="#91CCCB" transform="translate(147,145)"/>
<path d="M0 0 C0.33 0.66 0.66 1.32 1 2 C1.66 2.33 2.32 2.66 3 3 C1.75645114 4.29787866 0.5048736 5.58806759 -0.75 6.875 C-1.44609375 7.59429687 -2.1421875 8.31359375 -2.859375 9.0546875 C-4.86945953 10.88137016 -6.53343753 11.92152394 -9 13 C-9.70125 13.391875 -10.4025 13.78375 -11.125 14.1875 C-11.74375 14.455625 -12.3625 14.72375 -13 15 C-13.66 14.67 -14.32 14.34 -15 14 C-14.25 11.5625 -14.25 11.5625 -13 9 C-10.07083439 7.67715102 -9.12177395 7.95940868 -6 9 C-5.566875 8.071875 -5.566875 8.071875 -5.125 7.125 C-4 5 -4 5 -2 3 C-1.34 2.01 -0.68 1.02 0 0 Z M-10 9 C-10.33 9.66 -10.66 10.32 -11 11 C-10.34 11 -9.68 11 -9 11 C-9.33 10.34 -9.66 9.68 -10 9 Z " fill="#D5EFED" transform="translate(296,122)"/>
<path d="M0 0 C0.82640744 3.11390323 1.24901667 5.76278328 1 9 C0.01 10.485 0.01 10.485 -1 12 C-1.66 12 -2.32 12 -3 12 C-3.33 13.98 -3.66 15.96 -4 18 C-3.01 18.33 -2.02 18.66 -1 19 C-4.75 21 -4.75 21 -7 21 C-4.96192707 13.8821847 -2.59655258 6.93292719 0 0 Z " fill="#ACBCBB" transform="translate(246,232)"/>
<path d="M0 0 C0.33 0 0.66 0 1 0 C1.27338445 5.37656087 1.38994303 8.56699758 -2 13 C-2.66 13.66 -3.32 14.32 -4 15 C-3.63495936 9.33557626 -2.9445679 4.99296295 0 0 Z " fill="#C8D7D7" transform="translate(260,195)"/>
<path d="M0 0 C0 2.33333333 0 4.66666667 0 7 C-1.96875 8.703125 -1.96875 8.703125 -4.5 10.25 C-5.3353125 10.77078125 -6.170625 11.2915625 -7.03125 11.828125 C-8.00578125 12.40820312 -8.00578125 12.40820312 -9 13 C-9.66 12.67 -10.32 12.34 -11 12 C-7.37 8.04 -3.74 4.08 0 0 Z " fill="#56AFAB" transform="translate(383,58)"/>
<path d="M0 0 C1.65 0.33 3.3 0.66 5 1 C5 1.99 5 2.98 5 4 C1.04 5.98 1.04 5.98 -3 8 C-3 6.02 -3 4.04 -3 2 C-2.01 1.67 -1.02 1.34 0 1 C0 0.67 0 0.34 0 0 Z " fill="#61BFBE" transform="translate(409,43)"/>
<path d="M0 0 C0.33 1.32 0.66 2.64 1 4 C2.65 3.67 4.3 3.34 6 3 C6.33 2.01 6.66 1.02 7 0 C7 4 7 4 4.625 6.75 C2 9 2 9 0 9 C0 6.03 0 3.06 0 0 Z " fill="#E2F4F3" transform="translate(273,138)"/>
<path d="M0 0 C1.32 1.65 2.64 3.3 4 5 C3.34 6.32 2.68 7.64 2 9 C0.68 8.67 -0.64 8.34 -2 8 C-1.34 5.36 -0.68 2.72 0 0 Z " fill="#C6E4E2" transform="translate(227,286)"/>
<path d="M0 0 C0.33 0 0.66 0 1 0 C1.20625 0.94875 1.4125 1.8975 1.625 2.875 C2.69848511 6.27146604 2.69848511 6.27146604 6 7.3125 C6.99 7.539375 7.98 7.76625 9 8 C9.66 8.33 10.32 8.66 11 9 C11 9.66 11 10.32 11 11 C9.53932801 10.54917531 8.08151968 10.08906463 6.625 9.625 C5.40683594 9.24214844 5.40683594 9.24214844 4.1640625 8.8515625 C2 8 2 8 0 6 C-0.125 2.875 -0.125 2.875 0 0 Z " fill="#B2B2B2" transform="translate(191,359)"/>
<path d="M0 0 C1.9375 0.3125 1.9375 0.3125 4 1 C4.33 1.99 4.66 2.98 5 4 C4.67 4.66 4.34 5.32 4 6 C1.525 5.01 1.525 5.01 -1 4 C-0.67 2.68 -0.34 1.36 0 0 Z " fill="#B9D6D4" transform="translate(202,356)"/>
<path d="M0 0 C3 3.625 3 3.625 3 7 C1.35 7.33 -0.3 7.66 -2 8 C-1.125 1.125 -1.125 1.125 0 0 Z " fill="#B2D4D2" transform="translate(219,308)"/>
<path d="M0 0 C0.99 0 1.98 0 3 0 C3.98120464 3.05263664 3.98120464 4.94736336 3 8 C1 6.625 1 6.625 -1 5 C-1 4.34 -1 3.68 -1 3 C-0.34 2.67 0.32 2.34 1 2 C0.67 1.34 0.34 0.68 0 0 Z " fill="#0E605C" transform="translate(114,209)"/>
<path d="M0 0 C0 0.99 0 1.98 0 3 C0.3062434 4.33981486 0.63451555 5.67511887 1 7 C-1.31 7 -3.62 7 -6 7 C-4.02 4.69 -2.04 2.38 0 0 Z " fill="#86BEBD" transform="translate(147,145)"/>
<path d="M0 0 C0.66 0.99 1.32 1.98 2 3 C-0.64 4.98 -3.28 6.96 -6 9 C-4.86634892 4.46539569 -3.35806626 3.09975347 0 0 Z " fill="#89C5C0" transform="translate(189,100)"/>
<path d="M0 0 C1.32 0.66 2.64 1.32 4 2 C2.625 4 2.625 4 1 6 C0.34 6 -0.32 6 -1 6 C-1.33 6.66 -1.66 7.32 -2 8 C-2.20086443 4.28400809 -2.1519437 3.22791555 0 0 Z " fill="#83C9C7" transform="translate(400,39)"/>
<path d="M0 0 C1 3 1 3 0.1875 5.625 C-1 8 -1 8 -3 9 C-3.36923077 3.46153846 -3.36923077 3.46153846 -1.5 1.125 C-1.005 0.75375 -0.51 0.3825 0 0 Z " fill="#1B5C58" transform="translate(231,244)"/>
<path d="M0 0 C0.33 1.32 0.66 2.64 1 4 C0.34 4 -0.32 4 -1 4 C-1.66 5.32 -2.32 6.64 -3 8 C-3.66 7.67 -4.32 7.34 -5 7 C-3.47793991 4.37098712 -2.15634036 2.15634036 0 0 Z " fill="#78C3BF" transform="translate(397,43)"/>
<path d="M0 0 C0.33 0.66 0.66 1.32 1 2 C-1.17508418 6.69360269 -1.17508418 6.69360269 -4.1875 7.8125 C-4.785625 7.874375 -5.38375 7.93625 -6 8 C-2.25 2.25 -2.25 2.25 0 0 Z " fill="#63ADAC" transform="translate(392,48)"/>
<path d="M0 0 C0.99 0 1.98 0 3 0 C1.9024777 2.99324263 1.32317108 3.84610901 -1.625 5.25 C-2.40875 5.4975 -3.1925 5.745 -4 6 C-4.33 5.34 -4.66 4.68 -5 4 C-4.34 4 -3.68 4 -3 4 C-3 3.34 -3 2.68 -3 2 C-2.01 2 -1.02 2 0 2 C0 1.34 0 0.68 0 0 Z " fill="#E1F2F1" transform="translate(290,129)"/>
<path d="M0 0 C0.66 0 1.32 0 2 0 C2 0.66 2 1.32 2 2 C2.99 2.33 3.98 2.66 5 3 C1.25 5 1.25 5 -1 5 C-0.67 3.35 -0.34 1.7 0 0 Z " fill="#B3CCCC" transform="translate(240,248)"/>
</svg>
