<?xml version="1.0" encoding="UTF-8"?>
<svg version="1.1" xmlns="http://www.w3.org/2000/svg" width="432" height="408">
<path d="M0 0 C142.56 0 285.12 0 432 0 C432 134.64 432 269.28 432 408 C289.44 408 146.88 408 0 408 C0 273.36 0 138.72 0 0 Z " fill="#000000" transform="translate(0,0)"/>
<path d="M0 0 C64.02 0 128.04 0 194 0 C192.63718288 6.13267702 191.19472206 11.72996789 189.05859375 17.56640625 C188.77528702 18.35369614 188.49198029 19.14098602 188.2000885 19.95213318 C187.2847136 22.49094492 186.36132685 25.02675293 185.4375 27.5625 C184.79524476 29.33777194 184.1533203 31.11316358 183.51171875 32.88867188 C179.9032519 42.85626873 176.23149197 52.79820407 172.47216797 62.70996094 C168.8873712 72.20288237 165.47950468 81.75826597 162.0625 91.3125 C157.88232697 102.99758283 153.68431501 114.67430605 149.375 126.3125 C148.98578369 127.36542236 148.59656738 128.41834473 148.19555664 129.50317383 C145.88940618 135.7072006 143.48950524 141.86725469 141 148 C138 148 138 148 136.0546875 146.1640625 C134.97574219 144.90722656 134.97574219 144.90722656 133.875 143.625 C133.07320312 142.70589844 132.27140625 141.78679687 131.4453125 140.83984375 C130.63835937 139.90269531 129.83140625 138.96554687 129 138 C123.43633339 131.65171374 117.65450364 125.60651488 111.6550293 119.67431641 C108.84604398 116.88549226 106.12078974 114.08711091 103.5625 111.0625 C99.68933566 106.49041878 95.3822069 102.35736961 91.12670898 98.14624023 C87.44233851 94.48556664 83.92810496 90.7542948 80.5703125 86.7890625 C78.16689934 84.05084552 75.54799152 81.53962524 72.953125 78.984375 C71.13012333 77.1322053 69.43396334 75.2282482 67.75 73.25 C64.66438366 69.65483234 61.36802046 66.32662522 58 63 C54.73616114 59.77603091 51.53169769 56.56482047 48.5625 53.0625 C44.91441827 48.76905738 40.90792489 44.8527289 36.88110352 40.91821289 C33.35056383 37.44370496 30.06015861 33.82660522 26.82128906 30.07958984 C23.67827635 26.49082546 20.39997857 23.03051913 17.125 19.5625 C16.42826172 18.82185303 15.73152344 18.08120605 15.01367188 17.31811523 C10.5803097 12.62132886 6.08152135 8.02361457 1.40625 3.56640625 C0 2 0 2 0 0 Z " fill="#026666" transform="translate(67,164)"/>
<path d="M0 0 C40.33246268 0 40.33246268 0 56.9921875 0.62109375 C58.86156663 0.68641272 60.73096214 0.75126447 62.60037231 0.81568909 C66.43261887 0.94898624 70.26469559 1.08617021 74.09667969 1.22680664 C78.96942885 1.40553782 83.84241947 1.5762551 88.71554375 1.74441433 C92.54031421 1.87685728 96.36497661 2.01222407 100.18960953 2.14857674 C101.98746726 2.21256094 103.7853463 2.27594952 105.58324814 2.33868217 C115.41224958 2.68431661 125.20062486 3.13317189 135 4 C133.43622501 7.32302186 131.78646849 9.56184007 129 12 C128.34 12 127.68 12 127 12 C127 12.66 127 13.32 127 14 C125.56640625 15.41015625 125.56640625 15.41015625 123.5625 17.0625 C118.77948698 21.12974522 114.39946343 25.5254604 110 30 C104.51553651 35.57805502 98.9346216 40.90434548 93 46 C84.49261732 53.5422145 76.41548409 61.49039996 68.44384766 69.59301758 C65.07335794 73.00310244 61.68949165 76.32501856 58.05078125 79.44921875 C53.28230036 83.55017108 48.90934777 88.01987619 44.5 92.5 C39.40225927 97.67956642 34.29953662 102.75395007 28.7578125 107.4609375 C26.92175478 109.06850804 25.20777607 110.75747565 23.5 112.5 C21.16974555 114.87224102 18.77895594 117.09113517 16.25 119.25 C12.14724638 122.7724034 8.36578184 126.57606221 4.59277344 130.44433594 C3.41233908 131.64664577 2.20828943 132.82568707 1 134 C0.67 134 0.34 134 0 134 C0 89.78 0 45.56 0 0 Z " fill="#CBF1F0" transform="translate(274,13)"/>
<path d="M0 0 C0.33 0 0.66 0 1 0 C1.02332844 17.45415735 1.0409789 34.90830985 1.05181217 52.36247921 C1.05697525 60.46618609 1.06401816 68.56988331 1.07543945 76.67358398 C1.08538594 83.73422122 1.09185334 90.79485146 1.09408849 97.85549551 C1.09539566 101.59634458 1.09848189 105.33717362 1.10573006 109.07801628 C1.11374324 113.24725113 1.11399116 117.41645084 1.11352539 121.58569336 C1.11712067 122.83509705 1.12071594 124.08450073 1.12442017 125.37176514 C1.1230455 126.50063644 1.12167084 127.62950775 1.12025452 128.79258728 C1.12117631 129.77982757 1.1220981 130.76706785 1.12304783 131.78422451 C1 134 1 134 0 135 C-1.63223456 135.09605864 -3.2686439 135.12187821 -4.90370178 135.12025452 C-6.49603889 135.12231651 -6.49603889 135.12231651 -8.12054443 135.12442017 C-9.29514221 135.12082489 -10.46973999 135.11722961 -11.67993164 135.11352539 C-12.90902756 135.11367142 -14.13812347 135.11381744 -15.40446472 135.1139679 C-18.78448672 135.11338892 -22.16444829 135.10835964 -25.54445958 135.10139394 C-29.07321194 135.09515988 -32.60196503 135.09455656 -36.13072205 135.09336853 C-42.81723119 135.09025537 -49.50372406 135.08204218 -56.19022602 135.07201904 C-63.80074303 135.06085744 -71.4112608 135.05534733 -79.02178395 135.05032361 C-94.68119874 135.03985956 -110.34059727 135.02226041 -126 135 C-124.36117131 131.5215775 -122.51950065 129.31094158 -119.74609375 126.62109375 C-118.89080078 125.78126953 -118.03550781 124.94144531 -117.15429688 124.07617188 C-115.37083565 122.34399638 -113.5869938 120.61221266 -111.80273438 118.88085938 C-107.52411391 114.67881378 -103.48410196 110.4715824 -99.76171875 105.765625 C-93.86857278 98.39447203 -87.09579341 91.91744682 -80.375 85.3125 C-77.81689198 82.7912016 -75.2620854 80.26662201 -72.7109375 77.73828125 C-72.10715271 77.14008575 -71.50336792 76.54189026 -70.88128662 75.92556763 C-67.21680728 72.27368121 -63.71168283 68.53956891 -60.36572266 64.59057617 C-58.36854158 62.26457783 -56.19541308 60.13763905 -54 58 C-49.78270874 53.82723519 -45.86261814 49.49780423 -42 45 C-36.64828312 38.87780248 -31.09079547 33.03888652 -25.30859375 27.32788086 C-21.94210276 23.98782546 -18.78483856 20.54402775 -15.71484375 16.93359375 C-12.98256669 13.85278021 -10.01904544 11.00915396 -7.0859375 8.12109375 C-5.28366679 6.28844769 -3.62139322 4.42909572 -2 2.4375 C-1.34 1.633125 -0.68 0.82875 0 0 Z " fill="#98DBDA" transform="translate(263,20)"/>
<path d="M0 0 C1.21623047 -0.05414063 2.43246094 -0.10828125 3.68554688 -0.1640625 C9.58301224 -0.25366045 13.85740941 -0.30058836 18.4609375 3.66015625 C19.65196539 4.91022114 20.81348733 6.18934934 21.9375 7.5 C22.91698014 8.51007419 23.89737312 9.51926442 24.87890625 10.52734375 C25.74386719 11.48769531 26.60882813 12.44804688 27.5 13.4375 C27.97123291 13.95836182 28.44246582 14.47922363 28.92797852 15.01586914 C32.00020647 18.42108424 35.01663104 21.87312248 38.0234375 25.3359375 C43.74397562 31.80364794 49.67647653 38.08844047 55.578125 44.390625 C67.51637745 57.13921621 67.51637745 57.13921621 72.9375 63.5 C73.51371094 64.1703125 74.08992188 64.840625 74.68359375 65.53125 C76.10441849 67.18505062 77.5214124 68.84214134 78.9375 70.5 C76.74743565 74.5158684 74.19716269 77.46238215 70.9375 80.66015625 C70.46054688 81.13190781 69.98359375 81.60365936 69.4921875 82.08970642 C67.97868141 83.58552255 66.45862343 85.07443398 64.9375 86.5625 C63.41727122 88.05499618 61.89857955 89.54897759 60.3828125 91.04600525 C59.00849452 92.40257839 57.62937458 93.75428167 56.25 95.10571289 C53.93410574 97.31724686 53.93410574 97.31724686 52.68717957 99.6212616 C50.9375 101.5 50.9375 101.5 48.10908508 101.98101807 C46.9610289 101.97213562 45.81297272 101.96325317 44.63012695 101.95410156 C43.32900467 101.95379944 42.02788239 101.95349731 40.68733215 101.95318604 C39.26680898 101.93275932 37.84629204 101.91189533 36.42578125 101.890625 C34.9727608 101.88316369 33.51973028 101.87747024 32.06669617 101.87347412 C28.24417285 101.85820878 24.42225847 101.8189202 20.59997559 101.7746582 C16.69889565 101.73372432 12.79771722 101.71546719 8.89648438 101.6953125 C1.24321211 101.65242596 -6.40955859 101.58416485 -14.0625 101.5 C-14.085621 88.4788936 -14.10341384 75.45779205 -14.11431217 62.43666935 C-14.11954153 56.39112183 -14.12664014 50.3455883 -14.13793945 44.30004883 C-14.14876645 38.47105712 -14.15477643 32.64207891 -14.15737724 26.81307793 C-14.15923183 24.5838239 -14.16285308 22.35457065 -14.16823006 20.12532234 C-14.17543799 17.01460266 -14.17649105 13.90393951 -14.17602539 10.79321289 C-14.17962067 9.86173431 -14.18321594 8.93025574 -14.18692017 7.97055054 C-14.17020992 -2.27429852 -9.02620912 0.1684518 0 0 Z " fill="#33A8A8" transform="translate(73.0625,52.5)"/>
<path d="M0 0 C0.33 0 0.66 0 1 0 C1 67.65 1 135.3 1 205 C-3.01450631 203.39419748 -6.30745828 201.73910854 -10 199.5625 C-16.03488163 196.04940124 -22.17684964 192.77760133 -28.375 189.5625 C-37.36170209 184.89517624 -46.21271058 180.03127115 -55 175 C-56.31504383 174.24859231 -57.63014649 173.49728757 -58.9453125 172.74609375 C-59.95335937 172.16988281 -60.96140625 171.59367188 -62 171 C-61.42548689 165.92920871 -60.27820529 161.4068622 -58.5078125 156.61328125 C-58.12140343 155.54191925 -58.12140343 155.54191925 -57.72718811 154.44891357 C-56.86635434 152.06767271 -55.99577286 149.69012256 -55.125 147.3125 C-54.50769434 145.61208831 -53.89092798 143.91148075 -53.2746582 142.21069336 C-51.56554235 137.5002191 -49.8471857 132.79316095 -48.12713623 128.08666992 C-46.54747119 123.76074691 -44.97312016 119.43289526 -43.39837646 115.10517883 C-41.33043242 109.42342943 -39.25945492 103.74278784 -37.1875 98.0625 C-36.60056366 96.45334213 -36.60056366 96.45334213 -36.00177002 94.81167603 C-31.43647716 82.30388492 -26.81972585 69.81716395 -22.13140869 57.35494995 C-19.61011148 50.64700947 -17.13926081 43.92306431 -14.70239258 37.18408203 C-10.16071321 24.629376 -5.37370121 12.22555518 0 0 Z " fill="#CBF1F0" transform="translate(263,190)"/>
<path d="M0 0 C0.79664063 0.32226562 1.59328125 0.64453125 2.4140625 0.9765625 C3.6103125 1.3684375 4.8065625 1.7603125 6.0390625 2.1640625 C6.8228125 2.4321875 7.6065625 2.7003125 8.4140625 2.9765625 C8.4140625 3.9665625 8.4140625 4.9565625 8.4140625 5.9765625 C7.76566406 6.30785156 7.11726563 6.63914062 6.44921875 6.98046875 C-9.7615738 15.47995131 -25.37174182 25.19557151 -40.81567383 35.00708008 C-43.67665035 36.81946879 -46.51451811 38.54323345 -49.5859375 39.9765625 C-48.11627392 36.57796547 -46.20556236 34.32692541 -43.5859375 31.7265625 C-42.8846875 31.02015625 -42.1834375 30.31375 -41.4609375 29.5859375 C-39.5859375 27.9765625 -39.5859375 27.9765625 -37.5859375 27.9765625 C-37.33070313 27.39519531 -37.07546875 26.81382813 -36.8125 26.21484375 C-33.3622618 19.91870844 -26.73417541 15.13838596 -21.34375 10.51953125 C-19.90631036 9.25777867 -18.54571253 7.90896319 -17.2109375 6.5390625 C-15.5859375 4.9765625 -15.5859375 4.9765625 -13.5859375 4.9765625 C-13.5859375 4.3165625 -13.5859375 3.6565625 -13.5859375 2.9765625 C-8.98489719 -2.47203787 -6.53095066 -2.42690916 0 0 Z " fill="#68C9C8" transform="translate(410.5859375,40.0234375)"/>
<path d="M0 0 C0.02465881 3.96930989 0.04284023 7.93859034 0.05493164 11.90795898 C0.05997057 13.25920386 0.06680177 14.61044326 0.07543945 15.96166992 C0.08752419 17.90020434 0.09269828 19.838778 0.09765625 21.77734375 C0.10289307 22.94515381 0.10812988 24.11296387 0.11352539 25.31616211 C0 28 0 28 -1 29 C-3.29151417 29.08790975 -5.58572524 29.10694038 -7.87890625 29.09765625 C-8.90889992 29.09553383 -8.90889992 29.09553383 -9.95970154 29.09336853 C-12.16067801 29.08775479 -14.36155409 29.07520007 -16.5625 29.0625 C-18.05143083 29.05748676 -19.54036324 29.05292355 -21.02929688 29.04882812 C-24.68623075 29.03778093 -28.34310558 29.02050713 -32 29 C-30.11229626 24.8005835 -27.25467352 22.43030478 -23.75 19.5625 C-17.77818559 14.58128577 -12.05020088 9.40376264 -6.44433594 4.01391602 C-2.21190433 0 -2.21190433 0 0 0 Z " fill="#0A8686" transform="translate(50,60)"/>
<path d="M0 0 C0.66 0.33 1.32 0.66 2 1 C-1.63 4.63 -5.26 8.26 -9 12 C-9 9 -9 9 -7.03125 6.73828125 C-5.77828125 5.53751953 -5.77828125 5.53751953 -4.5 4.3125 C-3.6646875 3.50425781 -2.829375 2.69601563 -1.96875 1.86328125 C-1.3190625 1.24839844 -0.669375 0.63351563 0 0 Z M-12 12 C-11.34 12.33 -10.68 12.66 -10 13 C-17.875 22.625 -17.875 22.625 -22 24 C-20.52278578 20.54798361 -18.56205999 18.35038064 -15.875 15.75 C-15.15054687 15.04359375 -14.42609375 14.3371875 -13.6796875 13.609375 C-13.12539063 13.07828125 -12.57109375 12.5471875 -12 12 Z " fill="#71B2B1" transform="translate(383,56)"/>
</svg>
